<svg xmlns="http://www.w3.org/2000/svg" viewBox="0 0 200 200">
  <rect width="200" height="200" rx="44" fill="#171717"/>
  <circle cx="100" cy="86" r="44" fill="#F97316"/>
  <path d="M62 70c0-14 11-25 25-25h8c9 0 16 7 16 16v6c0 13-10 24-23 24h-8c-8 0-14 6-14 14v8c0 8-6 14-14 14h-8c-8 0-14-6-14-14v-6c0-7 6-13 13-13h8c6 0 11-5 11-11z" fill="#FFF2E8"/>
  <path d="M84 58c12 0 22 10 22 22s-10 22-22 22-22-10-22-22 10-22 22-22z" fill="#FFFFFF"/>
  <circle cx="100" cy="80" r="19" fill="#F97316"/>
  <path d="M67 120c15 9 34 9 49 0" stroke="#FFFFFF" stroke-width="8" stroke-linecap="round"/>
  <path d="M68 138h65" stroke="#FFB347" stroke-width="10" stroke-linecap="round"/>
</svg>
